# xmcd
#
# Track frame offsets: 
#        150
#        20256
#        38452
#        56632
#        75082
#        89825
#        107331
#        125713
#        141410
#        156039
#        170288
#        188545
#
# Disc length: 2751 seconds
#
# Revision: 0
# Processed by: cddbd v1.5.2PL0 Copyright (c) Steve Scherf et al.
# Submitted via: ExactAudioCopy v1.3
#
DISCID=8b0abd0c
DTITLE=James Dean Hicks - Somewhere In America
DYEAR=1999
DGENRE=Country
TTITLE0=Somewhere In America
TTITLE1=It Wasn't In The Cards
TTITLE2=Bud For You
TTITLE3=A Bible An A Bus Ticket Home
TTITLE4=If I Can't Have Your Love
TTITLE5=Saving Grace
TTITLE6=I Can't Tell You No
TTITLE7=Waste Of A Woman's Love
TTITLE8=The Boat I Missed
TTITLE9=Reckless Abandon
TTITLE10=Mama Needs Someone To Hold Her
TTITLE11=Midnight Train
EXTD=
EXTT0=
EXTT1=
EXTT2=
EXTT3=
EXTT4=
EXTT5=
EXTT6=
EXTT7=
EXTT8=
EXTT9=
EXTT10=
EXTT11=
PLAYORDER=
